<svg width="347" height="413" viewBox="0 0 347 413" fill="none" xmlns="http://www.w3.org/2000/svg">
<g opacity="0.1">
<path d="M323.87 263.253L190.812 398.476C171.757 417.841 140.848 417.841 121.77 398.476L115.519 392.124C114.454 391.041 114.454 389.3 115.519 388.241L273.42 227.771C284.973 216.029 284.973 196.994 273.42 185.253L115.542 24.8059C114.454 23.7 114.454 21.9353 115.542 20.8294L121.747 14.5235C140.802 -4.84118 171.711 -4.84118 190.789 14.5235L323.87 149.771C354.709 181.112 354.709 231.912 323.87 263.253Z" fill="#00305B"/>
<path d="M47.2421 96.5239C51.3401 122.524 63.3099 147.442 82.9897 167.442C102.669 187.442 127.096 199.512 152.633 203.794C152.633 203.794 153.536 203.794 154.277 204.547C155.458 205.677 155.411 207.418 154.23 208.618C153.675 209.159 152.865 209.277 152.865 209.277C127.281 213.442 102.669 225.512 82.9897 245.606C63.3099 265.7 51.3401 290.524 47.2421 316.524C47.2421 316.524 47.2189 317.395 46.478 318.124C45.3898 319.23 43.6302 319.136 42.6346 318.124C41.8706 317.347 41.8475 316.194 41.8475 316.194C37.6337 290.383 25.8722 265.7 6.09978 245.583C-13.6726 225.489 -38.0987 213.418 -63.6824 209.253C-63.6824 209.253 -64.5158 209.183 -65.2104 208.477C-66.2522 207.418 -66.2754 205.747 -65.2104 204.571C-64.5853 203.936 -64.1685 203.865 -63.6592 203.794C-38.3765 199.606 -13.6726 187.418 6.09978 167.418C25.8722 147.418 37.7958 122.618 41.8707 96.618C41.8707 96.618 41.94 95.6768 42.6346 94.9709C43.6765 93.9121 45.4362 93.8886 46.5012 94.9709C46.9874 95.4651 47.1494 95.9356 47.2651 96.5239H47.2421Z" fill="#00B1CE"/>
</g>
</svg>
