<svg width="45" height="44" viewBox="0 0 45 44" fill="none" xmlns="http://www.w3.org/2000/svg">
<path d="M42.2081 28.0439L27.803 42.4491C25.7401 44.512 22.3938 44.512 20.3284 42.4491L19.6517 41.7723C19.5364 41.657 19.5364 41.4715 19.6517 41.3587L36.7463 24.264C37.9971 23.0133 37.9971 20.9855 36.7463 19.7347L19.6542 2.64253C19.5364 2.52472 19.5364 2.33673 19.6542 2.21892L20.3259 1.54717C22.3888 -0.515723 25.7351 -0.515723 27.8005 1.54717L42.2081 15.9548C45.5468 19.2936 45.5468 24.7052 42.2081 28.0439Z" fill="white"/>
<path d="M12.2599 10.2825C12.7035 13.0523 13.9994 15.7067 16.13 17.8373C18.2605 19.9678 20.9049 21.2537 23.6697 21.7099C23.6697 21.7099 23.7674 21.7099 23.8476 21.7901C23.9755 21.9104 23.9705 22.0959 23.8426 22.2237C23.7825 22.2814 23.6947 22.2939 23.6947 22.2939C20.925 22.7376 18.2605 24.0234 16.13 26.164C13.9994 28.3046 12.7035 30.949 12.2599 33.7188C12.2599 33.7188 12.2573 33.8115 12.1771 33.8892C12.0593 34.007 11.8688 33.997 11.761 33.8892C11.6783 33.8065 11.6758 33.6837 11.6758 33.6837C11.2196 30.934 9.94631 28.3046 7.80571 26.1615C5.66512 24.0209 3.0207 22.7351 0.250964 22.2914C0.250964 22.2914 0.160735 22.2839 0.0855387 22.2087C-0.0272562 22.0959 -0.0297627 21.9179 0.0855387 21.7926C0.153216 21.7249 0.198329 21.7174 0.253473 21.7099C2.99063 21.2637 5.66512 19.9653 7.80571 17.8348C9.94631 15.7042 11.2372 13.0623 11.6783 10.2926C11.6783 10.2926 11.6858 10.1923 11.761 10.1171C11.8738 10.0043 12.0643 10.0018 12.1796 10.1171C12.2323 10.1697 12.2498 10.2199 12.2624 10.2825H12.2599Z" fill="#00B1CE"/>
</svg>
